<mxfile host="app.diagrams.net" modified="2024-04-05T17:04:07.517Z" agent="Mozilla/5.0 (Macintosh; Intel Mac OS X 10_15_7) AppleWebKit/537.36 (KHTML, like Gecko) Chrome/123.0.0.0 Safari/537.36" etag="03pVNcfXDGS1mtYSdvsA" version="23.1.6" type="device">
  <diagram name="Page-1" id="tbk9tkqupGF90eTqMDWe">
    <mxGraphModel dx="954" dy="559" grid="0" gridSize="1" guides="1" tooltips="1" connect="1" arrows="1" fold="1" page="1" pageScale="1" pageWidth="827" pageHeight="583" background="none" math="0" shadow="1">
      <root>
        <mxCell id="0" />
        <mxCell id="1" parent="0" />
        <mxCell id="JurNrH_TO1luExd1idVn-7" style="edgeStyle=orthogonalEdgeStyle;rounded=0;orthogonalLoop=1;jettySize=auto;html=1;exitX=1;exitY=0.5;exitDx=0;exitDy=0;entryX=0;entryY=0.5;entryDx=0;entryDy=0;" edge="1" parent="1" source="JurNrH_TO1luExd1idVn-2" target="JurNrH_TO1luExd1idVn-3">
          <mxGeometry relative="1" as="geometry" />
        </mxCell>
        <mxCell id="JurNrH_TO1luExd1idVn-2" value="Clones the Repository to a local workspace" style="whiteSpace=wrap;html=1;aspect=fixed;" vertex="1" parent="1">
          <mxGeometry x="39" y="279" width="100" height="100" as="geometry" />
        </mxCell>
        <mxCell id="JurNrH_TO1luExd1idVn-8" style="edgeStyle=orthogonalEdgeStyle;rounded=0;orthogonalLoop=1;jettySize=auto;html=1;exitX=1;exitY=0.5;exitDx=0;exitDy=0;entryX=0;entryY=0.5;entryDx=0;entryDy=0;" edge="1" parent="1" source="JurNrH_TO1luExd1idVn-3" target="JurNrH_TO1luExd1idVn-4">
          <mxGeometry relative="1" as="geometry" />
        </mxCell>
        <mxCell id="JurNrH_TO1luExd1idVn-3" value="Scans the repository for secrets and creates a output (csv,json format)" style="whiteSpace=wrap;html=1;aspect=fixed;" vertex="1" parent="1">
          <mxGeometry x="209" y="279" width="100" height="100" as="geometry" />
        </mxCell>
        <mxCell id="JurNrH_TO1luExd1idVn-9" style="edgeStyle=orthogonalEdgeStyle;rounded=0;orthogonalLoop=1;jettySize=auto;html=1;exitX=1;exitY=0.5;exitDx=0;exitDy=0;entryX=0;entryY=0.5;entryDx=0;entryDy=0;" edge="1" parent="1" source="JurNrH_TO1luExd1idVn-4" target="JurNrH_TO1luExd1idVn-5">
          <mxGeometry relative="1" as="geometry" />
        </mxCell>
        <mxCell id="JurNrH_TO1luExd1idVn-16" value="" style="edgeStyle=orthogonalEdgeStyle;rounded=0;orthogonalLoop=1;jettySize=auto;html=1;" edge="1" parent="1" source="JurNrH_TO1luExd1idVn-4" target="JurNrH_TO1luExd1idVn-14">
          <mxGeometry relative="1" as="geometry" />
        </mxCell>
        <mxCell id="JurNrH_TO1luExd1idVn-4" value="Replaces the scanned secrest with placeholders and makes a mapping" style="whiteSpace=wrap;html=1;aspect=fixed;" vertex="1" parent="1">
          <mxGeometry x="369" y="279" width="100" height="100" as="geometry" />
        </mxCell>
        <mxCell id="JurNrH_TO1luExd1idVn-10" style="edgeStyle=orthogonalEdgeStyle;rounded=0;orthogonalLoop=1;jettySize=auto;html=1;exitX=1;exitY=0.5;exitDx=0;exitDy=0;" edge="1" parent="1" source="JurNrH_TO1luExd1idVn-5">
          <mxGeometry relative="1" as="geometry">
            <mxPoint x="729" y="329" as="targetPoint" />
          </mxGeometry>
        </mxCell>
        <mxCell id="JurNrH_TO1luExd1idVn-5" value="Triggers the cyberark api to store the secret mapping&amp;nbsp;" style="whiteSpace=wrap;html=1;aspect=fixed;" vertex="1" parent="1">
          <mxGeometry x="539" y="279" width="100" height="100" as="geometry" />
        </mxCell>
        <mxCell id="JurNrH_TO1luExd1idVn-6" value="Vault" style="sketch=0;outlineConnect=0;fontColor=#232F3E;gradientColor=none;strokeColor=#232F3E;fillColor=#ffffff;dashed=0;verticalLabelPosition=bottom;verticalAlign=top;align=center;html=1;fontSize=12;fontStyle=0;aspect=fixed;shape=mxgraph.aws4.resourceIcon;resIcon=mxgraph.aws4.vault;" vertex="1" parent="1">
          <mxGeometry x="729" y="299" width="60" height="60" as="geometry" />
        </mxCell>
        <mxCell id="JurNrH_TO1luExd1idVn-19" style="edgeStyle=orthogonalEdgeStyle;rounded=0;orthogonalLoop=1;jettySize=auto;html=1;exitX=0.5;exitY=1;exitDx=0;exitDy=0;entryX=0.5;entryY=0;entryDx=0;entryDy=0;" edge="1" parent="1" source="JurNrH_TO1luExd1idVn-11" target="JurNrH_TO1luExd1idVn-2">
          <mxGeometry relative="1" as="geometry" />
        </mxCell>
        <mxCell id="JurNrH_TO1luExd1idVn-11" value="" style="shape=image;html=1;verticalAlign=top;verticalLabelPosition=bottom;labelBackgroundColor=#ffffff;imageAspect=0;aspect=fixed;image=https://cdn4.iconfinder.com/data/icons/socialcones/508/Gitlab-128.png" vertex="1" parent="1">
          <mxGeometry x="54" y="164" width="70" height="70" as="geometry" />
        </mxCell>
        <mxCell id="JurNrH_TO1luExd1idVn-18" style="edgeStyle=orthogonalEdgeStyle;rounded=0;orthogonalLoop=1;jettySize=auto;html=1;exitX=0;exitY=0.5;exitDx=0;exitDy=0;entryX=1;entryY=0.5;entryDx=0;entryDy=0;" edge="1" parent="1" source="JurNrH_TO1luExd1idVn-14" target="JurNrH_TO1luExd1idVn-11">
          <mxGeometry relative="1" as="geometry" />
        </mxCell>
        <mxCell id="JurNrH_TO1luExd1idVn-14" value="creates a test branch and pushes to gitlab" style="whiteSpace=wrap;html=1;aspect=fixed;" vertex="1" parent="1">
          <mxGeometry x="369" y="149" width="100" height="100" as="geometry" />
        </mxCell>
      </root>
    </mxGraphModel>
  </diagram>
</mxfile>
